name Walk8.mot
datacolumns 19
datarows 30
range 2.93300000 2.96200000
endheader

                time	   L_ground_force_vx	   L_ground_force_vy	   L_ground_force_vz	   L_ground_force_px	   L_ground_force_py	   L_ground_force_pz	   R_ground_force_vx	   R_ground_force_vy	   R_ground_force_vz	   R_ground_force_px	   R_ground_force_py	   R_ground_force_pz	   L_ground_torque_x	   L_ground_torque_y	   L_ground_torque_z	   R_ground_torque_x	   R_ground_torque_y	   R_ground_torque_z	
          2.93300000	          0.00945732	          0.01359776	         -0.00266044	         -0.00019123	          0.00000000	         -0.00004462	         -0.85845523	        731.32875634	        -50.01845726	          0.12178759	          0.00000000	          0.13789717	          0.00000000	          0.00004211	          0.00000000	          0.00000000	         12.29187272	          0.00000000	
          2.93400000	          0.00808051	          0.00984018	         -0.00262394	         -0.00017859	          0.00000000	         -0.00004164	         -0.52935772	        730.73184005	        -50.05555274	          0.12200308	          0.00000000	          0.13803242	          0.00000000	          0.00004321	          0.00000000	          0.00000000	         12.25349419	          0.00000000	
          2.93500000	          0.00679022	          0.00636491	         -0.00258063	         -0.00016635	          0.00000000	         -0.00003876	         -0.20250514	        730.14306817	        -50.09596640	          0.12221802	          0.00000000	          0.13816749	          0.00000000	          0.00004405	          0.00000000	          0.00000000	         12.21530454	          0.00000000	
          2.93600000	          0.00558398	          0.00316106	         -0.00253124	         -0.00015453	          0.00000000	         -0.00003597	          0.12212003	        729.56267019	        -50.13942772	          0.12243235	          0.00000000	          0.13830235	          0.00000000	          0.00004466	          0.00000000	          0.00000000	         12.17731629	          0.00000000	
          2.93700000	          0.00445920	          0.00021767	         -0.00247649	         -0.00014312	          0.00000000	         -0.00003328	          0.44453813	        728.99088656	        -50.18566126	          0.12264606	          0.00000000	          0.13843698	          0.00000000	          0.00004504	          0.00000000	          0.00000000	         12.13954187	          0.00000000	
          2.93800000	          0.00341320	         -0.00247628	         -0.00241704	         -0.00013214	          0.00000000	         -0.00003070	          0.76477177	        728.42796969	        -50.23438779	          0.12285911	          0.00000000	          0.13857134	          0.00000000	          0.00004522	          0.00000000	          0.00000000	         12.10199282	          0.00000000	
          2.93900000	          0.00244324	         -0.00493182	         -0.00235351	         -0.00012160	          0.00000000	         -0.00002822	          1.08284525	        727.87418381	        -50.28532510	          0.12307147	          0.00000000	          0.13870540	          0.00000000	          0.00004522	          0.00000000	          0.00000000	         12.06467873	          0.00000000	
          2.94000000	          0.00154652	         -0.00715995	         -0.00228649	         -0.00011149	          0.00000000	         -0.00002585	          1.39878416	        727.32980391	        -50.33818905	          0.12328313	          0.00000000	          0.13883914	          0.00000000	          0.00004505	          0.00000000	          0.00000000	         12.02760661	          0.00000000	
          2.94100000	          0.00072020	         -0.00917157	         -0.00221652	         -0.00010183	          0.00000000	         -0.00002357	          1.71261564	        726.79511389	        -50.39269482	          0.12349406	          0.00000000	          0.13897251	          0.00000000	          0.00004471	          0.00000000	          0.00000000	         11.99078055	          0.00000000	
          2.94200000	         -0.00003859	         -0.01097750	         -0.00214413	         -0.00009260	          0.00000000	         -0.00002141	          2.02436913	        726.27040467	        -50.44855849	          0.12370424	          0.00000000	          0.13910548	          0.00000000	          0.00004424	          0.00000000	          0.00000000	         11.95420206	          0.00000000	
          2.94300000	         -0.00073272	         -0.01258841	         -0.00206979	         -0.00008380	          0.00000000	         -0.00001934	          2.33407732	        725.75597254	        -50.50549883	          0.12391363	          0.00000000	          0.13923803	          0.00000000	          0.00004365	          0.00000000	          0.00000000	         11.91787062	          0.00000000	
          2.94400000	         -0.00136506	         -0.01401477	         -0.00199395	         -0.00007544	          0.00000000	         -0.00001738	          2.64177707	        725.25211784	        -50.56323907	          0.12412221	          0.00000000	          0.13937011	          0.00000000	          0.00004293	          0.00000000	          0.00000000	         11.88178439	          0.00000000	
          2.94500000	         -0.00193847	         -0.01526691	         -0.00191703	         -0.00006750	          0.00000000	         -0.00001552	          2.94750985	        724.75914351	        -50.62150854	          0.12432997	          0.00000000	          0.13950169	          0.00000000	          0.00004212	          0.00000000	          0.00000000	         11.84594077	          0.00000000	
          2.94600000	         -0.00245581	         -0.01635489	         -0.00183940	         -0.00005998	          0.00000000	         -0.00001376	          3.25132194	        724.27735310	        -50.68004431	          0.12453686	          0.00000000	          0.13963275	          0.00000000	          0.00004121	          0.00000000	          0.00000000	         11.81033664	          0.00000000	
          2.94700000	         -0.00291988	         -0.01728857	         -0.00176142	         -0.00005287	          0.00000000	         -0.00001210	          3.55326457	        723.80704811	        -50.73859255	          0.12474287	          0.00000000	          0.13976324	          0.00000000	          0.00004023	          0.00000000	          0.00000000	         11.77496840	          0.00000000	
          2.94800000	         -0.00333347	         -0.01807753	         -0.00168341	         -0.00004617	          0.00000000	         -0.00001053	          3.85339400	        723.34852489	        -50.79690979	          0.12494798	          0.00000000	          0.13989314	          0.00000000	          0.00003918	          0.00000000	          0.00000000	         11.73983167	          0.00000000	
          2.94900000	         -0.00369929	         -0.01873110	         -0.00160568	         -0.00003987	          0.00000000	         -0.00000906	          4.15177147	        722.90207161	        -50.85476396	          0.12515216	          0.00000000	          0.14002242	          0.00000000	          0.00003807	          0.00000000	          0.00000000	         11.70492098	          0.00000000	
          2.95000000	         -0.00402002	         -0.01925832	         -0.00152849	         -0.00003395	          0.00000000	         -0.00000767	          4.44846285	        722.46796569	        -50.91193524	          0.12535540	          0.00000000	          0.14015106	          0.00000000	          0.00003691	          0.00000000	          0.00000000	         11.67022931	          0.00000000	
          2.95100000	         -0.00429830	         -0.01966794	         -0.00145208	         -0.00002840	          0.00000000	         -0.00000638	          4.74353782	        722.04647171	        -50.96821669	          0.12555768	          0.00000000	          0.14027903	          0.00000000	          0.00003571	          0.00000000	          0.00000000	         11.63574790	          0.00000000	
          2.95200000	         -0.00453668	         -0.01996841	         -0.00137668	         -0.00002322	          0.00000000	         -0.00000517	          5.03706874	        721.63784032	        -51.02341490	          0.12575897	          0.00000000	          0.14040629	          0.00000000	          0.00003448	          0.00000000	          0.00000000	         11.60146614	          0.00000000	
          2.95300000	         -0.00473764	         -0.02016788	         -0.00130250	         -0.00001839	          0.00000000	         -0.00000405	          5.32912946	        721.24230835	        -51.07735050	          0.12595925	          0.00000000	          0.14053282	          0.00000000	          0.00003322	          0.00000000	          0.00000000	         11.56737174	          0.00000000	
          2.95400000	         -0.00490361	         -0.02027418	         -0.00122970	         -0.00001390	          0.00000000	         -0.00000300	          5.61979419	        720.86010053	        -51.12985874	          0.12615850	          0.00000000	          0.14065858	          0.00000000	          0.00003194	          0.00000000	          0.00000000	         11.53345086	          0.00000000	
          2.95500000	         -0.00503695	         -0.02029483	         -0.00115844	         -0.00000974	          0.00000000	         -0.00000203	          5.90913682	        720.49143213	        -51.18079003	          0.12635668	          0.00000000	          0.14078355	          0.00000000	          0.00003065	          0.00000000	          0.00000000	         11.49968835	          0.00000000	
          2.95600000	         -0.00513991	         -0.02023703	         -0.00108886	         -0.00000590	          0.00000000	         -0.00000114	          6.19723050	        720.13651174	        -51.23001069	          0.12655378	          0.00000000	          0.14090769	          0.00000000	          0.00002936	          0.00000000	          0.00000000	         11.46606792	          0.00000000	
          2.95700000	         -0.00521470	         -0.02010768	         -0.00102108	         -0.00000236	          0.00000000	         -0.00000032	          6.48414777	        719.79554313	        -51.27740365	          0.12674977	          0.00000000	          0.14103100	          0.00000000	          0.00002806	          0.00000000	          0.00000000	         11.43257234	          0.00000000	
          2.95800000	         -0.00526342	         -0.01991335	         -0.00095521	          0.00000088	          0.00000000	          0.00000043	          6.76996083	        719.46872582	        -51.32286922	          0.12694462	          0.00000000	          0.14115344	          0.00000000	          0.00002677	          0.00000000	          0.00000000	         11.39918362	          0.00000000	
          2.95900000	         -0.00528811	         -0.01966029	         -0.00089133	          0.00000385	          0.00000000	          0.00000112	          7.05474220	        719.15625470	        -51.36632572	          0.12713831	          0.00000000	          0.14127502	          0.00000000	          0.00002548	          0.00000000	          0.00000000	         11.36588303	          0.00000000	
          2.96000000	         -0.00529072	         -0.01935445	         -0.00082951	          0.00000655	          0.00000000	          0.00000174	          7.33856546	        718.85831955	        -51.40770993	          0.12733082	          0.00000000	          0.14139571	          0.00000000	          0.00002421	          0.00000000	          0.00000000	         11.33265114	          0.00000000	
          2.96100000	         -0.00527311	         -0.01900148	         -0.00076982	          0.00000899	          0.00000000	          0.00000231	          7.62150594	        718.57510511	        -51.44697718	          0.12752212	          0.00000000	          0.14151552	          0.00000000	          0.00002296	          0.00000000	          0.00000000	         11.29946772	          0.00000000	
          2.96200000	         -0.00523708	         -0.01860672	         -0.00071229	          0.00001120	          0.00000000	          0.00000282	          7.90364146	        718.30679192	        -51.48410133	          0.12771218	          0.00000000	          0.14163444	          0.00000000	          0.00002173	          0.00000000	          0.00000000	         11.26631168	          0.00000000	
